<?xml version="1.0" encoding="iso-8859-1"?>
<!-- Generator: Adobe Illustrator 21.1.0, SVG Export Plug-In . SVG Version: 6.00 Build 0)  -->
<svg version="1.1" id="Layer_1" xmlns="http://www.w3.org/2000/svg" xmlns:xlink="http://www.w3.org/1999/xlink" x="0px" y="0px"
	 viewBox="0 0 24 24" enable-background="new 0 0 24 24" xml:space="preserve">
<g>
	<path fill="#303C42" d="M23,4c0-0.5341797-0.2080078-1.0361328-0.5859375-1.4140625l-1-1
		C20.6582031,0.8300781,19.34375,0.828125,18.5839844,1.5878906L17,3.1902466V3c0-1.1030273-0.8183594-2-1.8237305-2H2.8237305
		C1.8183594,1,1,1.8969727,1,3v18c0,1.1030273,0.8183594,2,1.8237305,2h12.3525391C16.1816406,23,17,22.1030273,17,21V10.7660522
		l5.4140625-5.3519897C22.7919922,5.0361328,23,4.5341797,23,4z"/>
	<path fill="#FFFFFF" d="M16,21c0,0.5512695-0.3696289,1-0.8237305,1H2.8237305C2.3696289,22,2,21.5512695,2,21V3
		c0-0.5512695,0.3696289-1,0.8237305-1H4.5v1.1537476C4.206665,3.3283081,4,3.6347656,4,4c0,0.5512695,0.4487305,1,1,1
		s1-0.4487305,1-1c0-0.3652344-0.206665-0.6716919-0.5-0.8462524V2h3v1.1537476C8.206665,3.3283081,8,3.6347656,8,4
		c0,0.5512695,0.4487305,1,1,1s1-0.4487305,1-1c0-0.3652344-0.206665-0.6716919-0.5-0.8462524V2h3v1.1537476
		C12.206665,3.3283081,12,3.6347656,12,4c0,0.5512695,0.4487305,1,1,1s1-0.4487305,1-1
		c0-0.3652344-0.206665-0.6716919-0.5-0.8462524V2h1.6762695C15.6303711,2,16,2.4487305,16,3v1.2018433l-7.8554688,7.9465942
		c-0.046875,0.0473633-0.0839844,0.1040039-0.1088867,0.1660156l-2,5C5.9614258,17.5,6.0048828,17.7119141,6.1464844,17.8535156
		C6.2421875,17.9492188,6.3701172,18,6.5,18c0.0624938,0,0.1254883-0.0117188,0.1855469-0.0356445l5-2
		c0.0620117-0.0249023,0.1186523-0.0620117,0.1660156-0.1088867L16,11.7545776V21z"/>
	<path fill="#FFCB29" d="M12.1407471,14.1633301l-0.1934814-0.3869629c-0.0483398-0.0966797-0.1269531-0.175293-0.2236328-0.2236328
		l-0.3796387-0.1896973L19.5,5.2070313l0.8457031,0.8457031L12.1407471,14.1633301z"/>
	<path opacity="0.1" fill="#010101" d="M12.1407471,14.1633301l-0.1934814-0.3869629
		c-0.0483398-0.0966797-0.1269531-0.175293-0.2236328-0.2236328l-0.3796387-0.1896973L19.5,5.2070313l0.8457031,0.8457031
		L12.1407471,14.1633301z"/>
	<path fill="#FFCB29" d="M10.6369629,12.6560059l-0.1896973-0.3796387C10.3623047,12.1069336,10.1894531,12,10,12H9.6975708
		l8.2496948-8.3457031L18.7929688,4.5L10.6369629,12.6560059z"/>
	<path fill="#FAFBFB" d="M7.6918335,16.4848022l-0.1766357-0.1766357L8.8386841,13H9.690918l0.3618164,0.7236328
		c0.0483398,0.0966797,0.1269531,0.175293,0.2236328,0.2236328l0.8510742,0.425293l0.2650146,0.5303955l-0.1722412,0.1702881
		L7.6918335,16.4848022z"/>
	<path fill="#D32E2E" d="M21.7089844,4.7050781l-0.6521606,0.6447144l-2.4066162-2.4066162l0.6427612-0.6502075
		c0.3779297-0.3779297,1.0361328-0.3779297,1.4140625,0l1,1C21.8959961,3.4819336,22,3.7329102,22,4
		S21.8959961,4.5180664,21.7089844,4.7050781z"/>
	<linearGradient id="SVGID_1_" gradientUnits="userSpaceOnUse" x1="10.1345978" y1="13.8654022" x2="16.8702049" y2="20.6010094">
		<stop  offset="0" style="stop-color:#010101;stop-opacity:0.1"/>
		<stop  offset="1" style="stop-color:#010101;stop-opacity:0"/>
	</linearGradient>
	<path fill="url(#SVGID_1_)" d="M16,21v-9.2454224l-4.1484375,4.1008911
		c-0.0473633,0.046875-0.1040039,0.0839844-0.1660156,0.1088867l-5,2C6.6254883,17.9882813,6.5624938,18,6.5,18
		c-0.1298828,0-0.2578125-0.0507813-0.3535156-0.1464844L10.2929688,22h4.8833008C15.6303711,22,16,21.5512695,16,21z"/>
	<path opacity="0.1" fill="#010101" d="M7.6918335,16.4848022l3.5283813-1.4115601l0.1722412-0.1702881l-0.2650146-0.5303955
		l-0.8510742-0.425293c-0.0483398-0.0241699-0.0740356-0.0740356-0.1118164-0.1118164l-2.5610352,2.5610352L7.6918335,16.4848022z"
		/>
	<path opacity="0.1" fill="#010101" d="M21.2070313,2.7929688l-1.3535156,1.3535156l1.2033081,1.2033081l0.6521606-0.6447144
		C21.8959961,4.5180664,22,4.2670898,22,4s-0.1040039-0.5180664-0.2929688-0.7070313L21.2070313,2.7929688z"/>
	<linearGradient id="SVGID_2_" gradientUnits="userSpaceOnUse" x1="-0.7671391" y1="6.3084121" x2="19.6382046" y2="15.8235807">
		<stop  offset="0" style="stop-color:#FFFFFF;stop-opacity:0.2"/>
		<stop  offset="1" style="stop-color:#FFFFFF;stop-opacity:0"/>
	</linearGradient>
	<path fill="url(#SVGID_2_)" d="M23,4c0-0.5341797-0.2080078-1.0361328-0.5859375-1.4140625l-1-1
		C20.6582031,0.8300781,19.34375,0.828125,18.5839844,1.5878906L17,3.1902466V3c0-1.1030273-0.8183594-2-1.8237305-2H2.8237305
		C1.8183594,1,1,1.8969727,1,3v18c0,1.1030273,0.8183594,2,1.8237305,2h12.3525391C16.1816406,23,17,22.1030273,17,21V10.7660522
		l5.4140625-5.3519897C22.7919922,5.0361328,23,4.5341797,23,4z"/>
</g>
<g>
</g>
<g>
</g>
<g>
</g>
<g>
</g>
<g>
</g>
<g>
</g>
<g>
</g>
<g>
</g>
<g>
</g>
<g>
</g>
<g>
</g>
<g>
</g>
<g>
</g>
<g>
</g>
<g>
</g>
</svg>
